<svg width="32" height="32" viewBox="0 0 32 32" fill="none" xmlns="http://www.w3.org/2000/svg">
<path d="M15.708 9.2002C19.1367 9.2002 21.9168 11.9796 21.917 15.4082C21.917 16.7617 21.4824 18.013 20.7471 19.0332L24.082 22.3682L22.668 23.7822L19.333 20.4473C18.3128 21.1824 17.0613 21.6172 15.708 21.6172C12.2796 21.6168 9.50011 18.8367 9.5 15.4082C9.50018 11.9798 12.2797 9.20057 15.708 9.2002ZM15.708 11.2002C13.3842 11.2006 11.5002 13.0844 11.5 15.4082C11.5001 17.7321 13.3842 19.6168 15.708 19.6172C18.0321 19.6172 19.9169 17.7323 19.917 15.4082C19.9168 13.0842 18.0321 11.2002 15.708 11.2002Z" fill="#0052D9" style="fill:#0052D9;fill:color(display-p3 0.0000 0.3216 0.8510);fill-opacity:1;"/>
<circle cx="5.26348" cy="25.6636" r="2" transform="rotate(110 5.26348 25.6636)" fill="#0052D9" style="fill:#0052D9;fill:color(display-p3 0.0000 0.3216 0.8510);fill-opacity:1;"/>
<path d="M25.2051 6.16427C23.921 4.99876 22.4175 4.08758 20.7507 3.4809C13.7445 0.930856 5.99765 4.54328 3.4476 11.5495C2.16431 15.0753 2.40986 18.894 4.04977 22.187L2.25987 23.0788C0.37795 19.2999 0.0954276 14.9119 1.56822 10.8654C4.49605 2.82129 13.3906 -1.32631 21.4348 1.60152C23.3465 2.29733 25.0741 3.34403 26.5496 4.68322L25.2051 6.16427ZM30.6987 21.4681C27.7709 29.5122 18.8763 33.6598 10.8321 30.732C8.53284 29.8951 6.50261 28.5511 4.85988 26.8082L6.31503 25.4371C7.74492 26.954 9.51185 28.1231 11.5162 28.8526C18.5224 31.4027 26.2693 27.7902 28.8193 20.784C30.2667 16.8074 29.7618 12.4666 27.5463 8.95455L29.2378 7.88769C31.7799 11.9175 32.3599 16.9038 30.6987 21.4681Z" fill="#0052D9" style="fill:#0052D9;fill:color(display-p3 0.0000 0.3216 0.8510);fill-opacity:1;"/>
<circle cx="25.919" cy="5.36185" r="2" transform="rotate(110 25.919 5.36185)" fill="#0052D9" style="fill:#0052D9;fill:color(display-p3 0.0000 0.3216 0.8510);fill-opacity:1;"/>
</svg>
